# xmcd
#
# Track frame offsets:
#	150
#	2372
#	16191
#	31420
#	45401
#	47476
#	61773
#	83236
#	84620
#	98609
#	114973
#	129044
#	145519
#	173936
#
# Disc length: 3069 seconds
#
# Revision: 1
# Processed by: cddbd v1.5.2PL0 Copyright (c) Steve Scherf et al.
# Submitted via: audiograbber 1.83.01
#
DISCID=910bfb0e
DTITLE=Quest Pistols - Для тебя...
DYEAR=2008
DGENRE=Pop
TTITLE0=Петь живьем
TTITLE1=Я устал
TTITLE2=Для тебя
TTITLE3=Томатный сок
TTITLE4=Звездочка
TTITLE5=Мама
TTITLE6=После дождя
TTITLE7=Неудачник
TTITLE8=Дни гламура
TTITLE9=Будь со мной
TTITLE10=Волшебные краски
TTITLE11=Я устал (remix)
TTITLE12=Томатный сок (remix)
TTITLE13=Диск с данными
EXTD=
EXTT0=
EXTT1=
EXTT2=
EXTT3=
EXTT4=
EXTT5=
EXTT6=
EXTT7=
EXTT8=
EXTT9=
EXTT10=
EXTT11=
EXTT12=
EXTT13=
PLAYORDER=
